<svg viewBox = "0 0 52 32" width="52" height="32" xmlns="http://www.w3.org/2000/svg"><g transform="matrix(1 0 0 1 26 16)"  ><g style=""   ><g transform="matrix(1 0 0 1 -0.27 -0.02)" id="Fill-1"  ><polygon style="stroke: none; stroke-width: 1; stroke-dasharray: none; stroke-linecap: butt; stroke-dashoffset: 0; stroke-linejoin: miter; stroke-miterlimit: 4; fill: rgb(255,95,0); fill-rule: evenodd; opacity: 1;"  points="-6.96,12.56 6.96,12.56 6.96,-12.56 -6.96,-12.56 " /></g><g transform="matrix(1 0 0 1 -13.13 -0.02)" id="Fill-2"  ><path style="stroke: none; stroke-width: 1; stroke-dasharray: none; stroke-linecap: butt; stroke-dashoffset: 0; stroke-linejoin: miter; stroke-miterlimit: 4; fill: rgb(235,0,27); fill-rule: evenodd; opacity: 1;"  transform=" translate(-12.87, -15.98)" d="M 19.6590387 15.976947 C 19.6590387 10.8803009 22.03472 6.34107274 25.7341024 3.41596003 C 23.0283795 1.27638054 19.6148564 0 15.9044284 0 C 7.12054904 0 0.000132546844 7.15323422 0.000132546844 15.976947 C 0.000132546844 24.8006598 7.12054904 31.953894 15.9044284 31.953894 C 19.6148564 31.953894 23.0283795 30.6775135 25.7341024 28.537934 C 22.03472 25.6123775 19.6590387 21.0735931 19.6590387 15.976947" stroke-linecap="round" /></g><g transform="matrix(1 0 0 1 12.6 -0.02)" id="Fill-4"  ><path style="stroke: none; stroke-width: 1; stroke-dasharray: none; stroke-linecap: butt; stroke-dashoffset: 0; stroke-linejoin: miter; stroke-miterlimit: 4; fill: rgb(247,158,27); fill-rule: evenodd; opacity: 1;"  transform=" translate(-38.6, -15.98)" d="M 50.9714634 25.8771954 L 50.9714634 25.257201 L 50.8101981 25.257201 L 50.6250744 25.6836968 L 50.4395088 25.257201 L 50.2782434 25.257201 L 50.2782434 25.8771954 L 50.3917919 25.8771954 L 50.3917919 25.4094258 L 50.5658701 25.8128438 L 50.6838368 25.8128438 L 50.857915 25.4085382 L 50.857915 25.8771954 L 50.9714634 25.8771954 Z M 49.9504109 25.8771954 L 49.9504109 25.3628264 L 50.157184 25.3628264 L 50.157184 25.2580887 L 49.6314148 25.2580887 L 49.6314148 25.3628264 L 49.8377461 25.3628264 L 49.8377461 25.8771954 L 49.9504109 25.8771954 Z M 51.4680723 15.9768139 C 51.4680723 24.8005266 44.347214 31.9537609 35.5637764 31.9537609 C 31.8533484 31.9537609 28.4393835 30.6773803 25.7341024 28.5378008 C 29.4334848 25.6126881 31.8091661 21.07346 31.8091661 15.9768139 C 31.8091661 10.8806116 29.4334848 6.34138341 25.7341024 3.41582689 C 28.4393835 1.2762474 31.8533484 -0.000133141225 35.5637764 -0.000133141225 C 44.347214 -0.000133141225 51.4680723 7.15310107 51.4680723 15.9768139 L 51.4680723 15.9768139 Z" stroke-linecap="round" /></g></g></g></svg>